<?xml version="1.0" encoding="utf-8"?>
<!-- Generator: Adobe Illustrator 22.0.1, SVG Export Plug-In . SVG Version: 6.00 Build 0)  -->
<svg version="1.1" id="레이어_1" xmlns="http://www.w3.org/2000/svg" xmlns:xlink="http://www.w3.org/1999/xlink" x="0px"
	 y="0px" viewBox="0 0 32 32" style="enable-background:new 0 0 32 32;" xml:space="preserve">
<style type="text/css">
	.st0{fill:#B6101A;}
	.st1{fill:#FFFFFF;}
</style>
<g>
	<path class="st0" d="M0,32c0-0.5,0-0.8,0-1.1c0-8.6,0-17.2,0-25.7C0,1.8,2,0,5.5,0c8.4,0,16.9,0,25.3,0c0.4,0,0.7,0,1.1,0
		c0,0.4,0,0.7,0,1c0,8.6,0,17.3,0,25.9c0,3.2-2,5.1-5.4,5.1c-8.5,0-17,0-25.5,0C0.8,32,0.4,32,0,32z M30.1,16c0-3,0-6,0-9
		c0-3.1-2.2-5.3-5.5-5.3c-5.7,0-11.4,0-17.1,0C4.1,1.8,1.9,3.9,1.9,7c0,6,0,12,0,18c0,3.1,2.2,5.2,5.5,5.3c5.7,0,11.5,0,17.2,0
		c3.3,0,5.5-2.1,5.5-5.3C30.1,22,30.1,19,30.1,16z"/>
	<path class="st0" d="M30.1,16c0,3,0,6,0,9c0,3.2-2.2,5.3-5.5,5.3c-5.7,0-11.5,0-17.2,0c-3.3,0-5.5-2.2-5.5-5.3c0-6,0-12,0-18
		c0-3.1,2.2-5.2,5.6-5.3c5.7,0,11.4,0,17.1,0c3.3,0,5.5,2.1,5.5,5.3C30.1,10,30.1,13,30.1,16z M29.1,16c0-3,0-6,0-9
		c0-2.7-1.8-4.3-4.6-4.3c-5.7,0-11.3,0-17,0C4.7,2.7,2.9,4.4,2.9,7c0,6,0,11.9,0,17.9c0,2.8,1.8,4.4,4.7,4.4c5.6,0,11.1,0,16.7,0
		c3,0,4.7-1.6,4.8-4.5C29.1,21.9,29.1,18.9,29.1,16z"/>
	<path class="st0" d="M29.1,16c0,2.9,0,5.9,0,8.8c0,2.9-1.7,4.5-4.8,4.5c-5.6,0-11.1,0-16.7,0c-2.9,0-4.7-1.6-4.7-4.4
		c0-6,0-11.9,0-17.9c0-2.6,1.8-4.3,4.6-4.3c5.7,0,11.3,0,17,0c2.8,0,4.6,1.7,4.6,4.3C29.1,10,29.1,13,29.1,16z M21.4,19.5
		c2.5-0.7,3.1-2.5,3.1-4.6c0-1.1,0-2.3,0-3.4c-0.1-3.1-1.7-4.6-4.9-4.7c-3.8-0.1-7.6,0-11.5-0.1c-0.8,0-1,0.2-1,1
		c0,5.4,0,10.8,0,16.2c0,1.6-0.2,1.4,1.5,1.4c1.2,0,2.4,0,3.6,0c0-1.9,0-3.7,0-5.5c1.1,0,2.1,0,3.1,0c0.5,0,0.8,0.2,1,0.6
		c0.8,1.5,1.7,2.9,2.5,4.3c0.1,0.2,0.4,0.5,0.6,0.6c1.7,0,3.4,0,5.3,0C23.6,23.2,22.5,21.4,21.4,19.5z"/>
	<path class="st1" d="M21.4,19.5c1.2,1.9,2.3,3.8,3.5,5.8c-1.9,0-3.6,0-5.3,0c-0.2,0-0.5-0.3-0.6-0.6c-0.9-1.4-1.7-2.9-2.5-4.3
		c-0.2-0.4-0.5-0.6-1-0.6c-1,0-2,0-3.1,0c0,1.8,0,3.6,0,5.5c-1.3,0-2.5,0-3.6,0c-1.7,0-1.5,0.2-1.5-1.4c0-5.4,0-10.8,0-16.2
		c0-0.7,0.2-1,1-1c3.8,0.1,7.6,0,11.5,0.1c3.2,0.1,4.8,1.6,4.9,4.7c0,1.1,0,2.3,0,3.4C24.5,17,23.8,18.7,21.4,19.5z M12.3,16
		c2,0,3.9,0,5.8,0c0.8,0,1.3-0.5,1.3-1.3c0-0.9,0-1.7,0-2.6c0-1.1-0.5-1.5-1.7-1.6c-1.1,0-2.3,0-3.4,0c-0.7,0-1.3,0-2,0
		C12.3,12.4,12.3,14.1,12.3,16z"/>
	<path class="st0" d="M12.3,16c0-1.8,0-3.6,0-5.4c0.7,0,1.4,0,2,0c1.1,0,2.3,0,3.4,0c1.2,0,1.6,0.5,1.7,1.6c0,0.9,0,1.7,0,2.6
		c0,0.8-0.5,1.3-1.3,1.3C16.2,16,14.3,16,12.3,16z"/>
</g>
</svg>
